<svg xmlns="http://www.w3.org/2000/svg" width="202.843" height="68.368" viewBox="0 0 202.843 68.368">
  <g id="Group_604" data-name="Group 604" transform="translate(-86 -372)">
    <g id="Group_18" data-name="Group 18" transform="translate(137.907 440.367) rotate(180)">
      <g id="Group_17" data-name="Group 17">
        <path id="Path_29" data-name="Path 29" d="M296.854,278.707l-.143-.106-4.27-3.594a5.712,5.712,0,0,0,.835-3.4,5.953,5.953,0,1,0-4.86,6.164,36.588,36.588,0,0,0,.9,4.421,31.625,31.625,0,0,0,2.153,6.05,36.061,36.061,0,0,1,3.414,10.024,99.77,99.77,0,0,0-13.03,4.618,5.865,5.865,0,1,0-.531,6.876,51.07,51.07,0,0,0,9.5,2.136,8.286,8.286,0,0,0,1.175.083v.007s7.063.117,7.632-4.251a24.42,24.42,0,0,0-.382-6.217c4.592-2.171,8.127-6.654,5.759-11.852A26.336,26.336,0,0,0,296.854,278.707Zm-14.231,28.474a5.875,5.875,0,0,0,.13-1.215c0-.017,0-.034,0-.051l4.306-.793a34,34,0,0,0,7.737-1.725c-.007.028-.014.055-.021.082a4.56,4.56,0,0,1-4.527,3.4A54.616,54.616,0,0,0,282.623,307.181Zm18.523-11.6a10.19,10.19,0,0,1-2.8,1.63,106.927,106.927,0,0,0-3.3-10.7,24.592,24.592,0,0,0-4.847-9.366,5.824,5.824,0,0,0,.9-.6c.07.117.143.234.215.351l.053.126.03.009a46.977,46.977,0,0,0,4.958,6.785,48.385,48.385,0,0,0,3.427,4.365,8.564,8.564,0,0,1,1.981,4.227C301.984,293.867,301.8,295.146,301.146,295.581Z" transform="translate(-253.854 -243.618)" fill="#2893db"/>
        <path id="Path_30" data-name="Path 30" d="M197.689,191.566l.143.106,4.27,3.594a5.714,5.714,0,0,0-.834,3.4,5.953,5.953,0,1,0,4.86-6.164,36.521,36.521,0,0,0-.9-4.421,31.649,31.649,0,0,0-2.153-6.05,36.065,36.065,0,0,1-3.415-10.024,99.735,99.735,0,0,0,13.03-4.618,5.865,5.865,0,1,0,.531-6.876,51.074,51.074,0,0,0-9.5-2.136,8.312,8.312,0,0,0-1.175-.083v-.007s-7.063-.117-7.633,4.251a24.419,24.419,0,0,0,.382,6.217c-4.592,2.172-8.127,6.654-5.759,11.852A26.337,26.337,0,0,0,197.689,191.566Zm14.231-28.474a5.858,5.858,0,0,0-.13,1.215c0,.017,0,.034,0,.051l-4.306.793a34.015,34.015,0,0,0-7.737,1.725l.021-.082a4.56,4.56,0,0,1,4.527-3.4A54.625,54.625,0,0,0,211.919,163.092Zm-18.523,11.6a10.193,10.193,0,0,1,2.8-1.63,106.924,106.924,0,0,0,3.3,10.7,24.6,24.6,0,0,0,4.847,9.366,5.813,5.813,0,0,0-.9.6c-.07-.117-.144-.234-.215-.351l-.053-.126-.029-.009a47,47,0,0,0-4.958-6.785,48.359,48.359,0,0,0-3.427-4.365,8.567,8.567,0,0,1-1.981-4.228C192.558,176.406,192.745,175.126,193.4,174.692Z" transform="translate(-188.782 -158.288)" fill="#2893db"/>
      </g>
    </g>
    <g id="Group_314" data-name="Group 314" transform="translate(0 7.084)">
      <g id="Group_20" data-name="Group 20" transform="translate(154.115 381.916)">
        <path id="Path_31" data-name="Path 31" d="M537.205,229.917c-4.916-1.158-6.313-2.081-6.313-4.384,0-2.346,1.722-3.606,4.662-3.606,3.984,0,5.209,2.039,5.594,4.137h5.6c-.415-4.174-3.464-8.343-11.037-8.343-6.863,0-10.507,3.527-10.507,8.42,0,4.049,2.137,6.79,9.813,8.612,5.355,1.265,6.792,2.521,6.792,5.119,0,2.38-1.586,4.007-5.41,4.007-3.718,0-5.949-1.512-6.667-4.679h-5.6c.676,5.1,4.371,8.92,11.853,8.92,7.616,0,11.512-3.715,11.512-8.9C547.5,235.18,545.748,231.952,537.205,229.917Z" transform="translate(-524.132 -213.695)" fill="#1c1c1c"/>
        <path id="Path_32" data-name="Path 32" d="M701.46,266.5c-6.932,0-10.387,5.019-10.387,11.793,0,5.73,3.032,11.211,10.16,11.211,6.608,0,8.994-4.2,9.8-6.928h-5.328c-.62,1.423-1.478,2.7-4.328,2.7-3.265,0-4.935-2.851-4.948-6.178h14.835a14.765,14.765,0,0,0,.073-1.843C711.338,272.033,708.854,266.5,701.46,266.5Zm-4.9,9.217c.29-3.08,1.641-5.319,4.875-5.319s4.52,2.406,4.563,5.319Z" transform="translate(-665.381 -254.965)" fill="#1c1c1c"/>
        <path id="Path_33" data-name="Path 33" d="M849.031,271.079c0-1.507-.073-3.535-.145-4.069h-5.212c.03,1.613.043,3.482.043,5.964v16.013h5.315V279.04c0-5.867,2.723-7.447,7.17-7.416V266.5C852.5,266.548,850.061,268.412,849.031,271.079Z" transform="translate(-794.496 -254.965)" fill="#1c1c1c"/>
        <path id="Path_34" data-name="Path 34" d="M943.193,287.05h-.043c-.513-2.676-2.4-9.256-4.782-17.219h-5.713l7.521,21.977h5.653l7.871-21.977h-5.323C946,277.209,943.783,283.819,943.193,287.05Z" transform="translate(-869.785 -257.786)" fill="#1c1c1c"/>
        <path id="Path_35" data-name="Path 35" d="M1154.618,274.041v-4.21h-16.925v4.258H1148.6l-11.472,13.655v4.065h17.506l.693-4.258h-11.981Z" transform="translate(-1042.79 -257.785)" fill="#1c1c1c"/>
        <path id="Path_36" data-name="Path 36" d="M1271.976,266.5c-6.859,0-10.836,4.878-10.836,11.562,0,6.576,3.921,11.442,10.562,11.442,6.88,0,10.742-5,10.742-11.544C1282.444,271.063,1278.322,266.5,1271.976,266.5Zm-.133,18.776c-3.273,0-5.29-2.846-5.29-7.274,0-4.771,1.949-7.274,5.2-7.274,3.4,0,5.273,2.589,5.273,7.3C1277.031,282.487,1275.172,285.273,1271.843,285.273Z" transform="translate(-1147.716 -254.965)" fill="#1c1c1c"/>
        <path id="Path_37" data-name="Path 37" d="M962.759,206.046" transform="translate(-895.255 -203.817)" fill="#1c1c1c"/>
        <g id="Group_19" data-name="Group 19" transform="translate(85.287)">
          <rect id="Rectangle_8" data-name="Rectangle 8" width="8.11" height="7.929" rx="3.964" fill="#2893db"/>
          <path id="Path_38" data-name="Path 38" d="M1086.159,275.164s3.386-12.737,3.386-22.835a2.412,2.412,0,0,0-2.523-2.283h-1.667a2.412,2.412,0,0,0-2.523,2.283s-.367,7.138,3.327,22.835h0l3.386-22.835" transform="translate(-1082.129 -241.046)" fill="#1c1c1c"/>
        </g>
      </g>
    </g>
  </g>
</svg>
